<svg version="1.1" id="Layer_1" xmlns="http://www.w3.org/2000/svg" xmlns:xlink="http://www.w3.org/1999/xlink" x="0px" y="0px"
	 width="100%" viewBox="0 0 251 250" enable-background="new 0 0 251 250" xml:space="preserve">
<path fill="#FFFFFF" opacity="1.000000" stroke="none" 
	d="
M252.000000,2.000000 
	C252.000000,83.666664 252.011108,165.333344 251.896591,246.999847 
	C251.894836,248.253021 253.962967,251.314819 249.365143,250.646423 
	C242.548157,248.398026 236.303040,246.685211 230.196701,244.571426 
	C216.445328,239.811234 202.273697,237.997620 187.800751,237.998459 
	C125.533836,238.002060 63.266918,238.000000 1.000000,238.000000 
	C1.000000,159.119324 1.000000,80.238640 1.000000,1.000000 
	C18.352587,1.000000 35.707634,1.000000 53.341331,1.388835 
	C36.226734,1.418145 20.798553,8.992692 4.585346,13.451136 
	C60.961830,14.000000 117.217072,14.191674 173.469254,13.862898 
	C187.234467,13.782445 201.110947,12.805253 214.714050,10.761339 
	C227.297424,8.870642 239.583176,4.999161 252.000000,2.000000 
M128.500000,19.997131 
	C111.502357,19.997002 94.488586,20.456388 77.511833,19.860853 
	C62.119610,19.320900 47.403679,21.362978 33.199924,27.331425 
	C29.249180,28.991535 25.105970,30.193605 21.051060,31.605810 
	C21.102596,32.004333 21.154133,32.402855 21.205671,32.801376 
	C34.324261,32.801376 47.442848,32.801376 60.683838,32.801376 
	C60.683838,95.567978 60.683838,157.613007 60.683838,220.026489 
	C45.509457,220.026489 30.646467,220.026489 15.783476,220.026489 
	C19.459122,222.025009 23.406672,222.774445 27.135086,224.127655 
	C44.132309,230.296631 61.826485,232.751984 79.709152,232.884750 
	C126.866486,233.234924 174.028137,233.006149 221.188065,232.990250 
	C222.733719,232.989731 224.279312,232.797562 225.824936,232.694733 
	C225.881134,232.289658 225.937332,231.884583 225.993530,231.479507 
	C218.219604,228.949295 210.449982,226.405746 202.670135,223.893875 
	C197.968216,222.375809 192.859070,221.221222 195.947220,214.229111 
	C196.316849,213.392212 195.999344,212.251556 195.999344,211.251709 
	C195.999451,169.424347 195.999588,127.596992 195.998734,85.769630 
	C195.998703,84.436546 195.983521,83.103462 195.983429,81.770378 
	C195.982346,64.700005 195.982712,47.629639 195.982712,30.610023 
	C207.415268,27.479918 219.403488,24.197676 231.391708,20.915434 
	C231.336273,20.609293 231.280823,20.303152 231.225372,19.997011 
	C197.316925,19.997011 163.408463,19.997011 128.500000,19.997131 
z"/>
<path fill="#666734" opacity="1.000000" stroke="none" 
	d="
M252.000000,1.500000 
	C239.583176,4.999161 227.297424,8.870642 214.714050,10.761339 
	C201.110947,12.805253 187.234467,13.782445 173.469254,13.862898 
	C117.217072,14.191674 60.961830,14.000000 4.585346,13.451136 
	C20.798553,8.992692 36.226734,1.418145 53.809990,1.388835 
	C120.000000,1.000000 186.000000,1.000000 252.000000,1.500000 
z"/>
<path fill="#666734" opacity="1.000000" stroke="none" 
	d="
M1.000000,238.250000 
	C63.266918,238.000000 125.533836,238.002060 187.800751,237.998459 
	C202.273697,237.997620 216.445328,239.811234 230.196701,244.571426 
	C236.303040,246.685211 242.548157,248.398026 248.865143,250.646423 
	C185.979111,251.000000 122.958214,251.000000 59.280315,250.612259 
	C51.971287,249.483627 45.213402,249.251282 38.689804,247.893372 
	C26.056822,245.263840 13.555743,242.000610 1.000000,239.000000 
	C1.000000,239.000000 1.000000,238.500000 1.000000,238.250000 
z"/>
<path fill="#FFFFFF" opacity="1.000000" stroke="none" 
	d="
M1.000000,239.479187 
	C13.555743,242.000610 26.056822,245.263840 38.689804,247.893372 
	C45.213402,249.251282 51.971287,249.483627 58.811657,250.612259 
	C39.666599,251.000000 20.333200,251.000000 1.000000,251.000000 
	C1.000000,247.243332 1.000000,243.600845 1.000000,239.479187 
z"/>
<path fill="#C69430" opacity="1.000000" stroke="none" 
	d="
M129.000000,19.997070 
	C163.408463,19.997011 197.316925,19.997011 231.225372,19.997011 
	C231.280823,20.303152 231.336273,20.609293 231.391708,20.915434 
	C219.403488,24.197676 207.415268,27.479918 195.982712,30.610023 
	C195.982712,47.629639 195.982346,64.700005 195.983429,81.770378 
	C195.983521,83.103462 195.998703,84.436546 195.998734,85.769630 
	C195.999588,127.596992 195.999451,169.424347 195.999344,211.251709 
	C195.999344,212.251556 196.316849,213.392212 195.947220,214.229111 
	C192.859070,221.221222 197.968216,222.375809 202.670135,223.893875 
	C210.449982,226.405746 218.219604,228.949295 225.993530,231.479507 
	C225.937332,231.884583 225.881134,232.289658 225.824936,232.694733 
	C224.279312,232.797562 222.733719,232.989731 221.188065,232.990250 
	C174.028137,233.006149 126.866486,233.234924 79.709152,232.884750 
	C61.826485,232.751984 44.132309,230.296631 27.135086,224.127655 
	C23.406672,222.774445 19.459122,222.025009 15.783476,220.026489 
	C30.646467,220.026489 45.509457,220.026489 60.683838,220.026489 
	C60.683838,157.613007 60.683838,95.567978 60.683838,32.801376 
	C47.442848,32.801376 34.324261,32.801376 21.205671,32.801376 
	C21.154133,32.402855 21.102596,32.004333 21.051060,31.605810 
	C25.105970,30.193605 29.249180,28.991535 33.199924,27.331425 
	C47.403679,21.362978 62.119610,19.320900 77.511833,19.860853 
	C94.488586,20.456388 111.502357,19.997002 129.000000,19.997070 
M182.000565,68.500000 
	C182.000565,56.408615 182.000565,44.317230 182.000565,32.851551 
	C165.601044,32.851551 149.929657,32.851551 134.395447,32.851551 
	C134.395447,95.740028 134.395447,157.779495 134.395447,219.715851 
	C140.063950,219.715851 145.332382,219.715851 151.000565,219.715851 
	C151.000565,217.476974 151.000565,215.513947 151.000565,213.550919 
	C151.000565,163.565063 151.000046,113.579201 151.003067,63.593342 
	C151.003159,62.094795 150.479324,60.217556 151.180466,59.178917 
	C152.515442,57.201366 154.283264,55.012367 156.377167,54.173214 
	C159.251678,53.021210 161.522293,54.980503 162.331482,57.870472 
	C163.115814,60.671638 163.924820,63.594795 163.930435,66.465927 
	C164.026520,115.618500 163.999435,164.771317 163.999435,213.924072 
	C163.999435,215.852432 163.999435,217.780792 163.999435,219.629578 
	C170.717316,219.629578 176.754395,219.629578 182.000565,219.629578 
	C182.000565,169.344299 182.000565,119.422150 182.000565,68.500000 
M91.000610,133.500000 
	C91.000610,108.509178 91.000206,83.518356 91.001717,58.527534 
	C91.001793,57.194824 90.743668,55.787521 91.081680,54.544346 
	C91.877701,51.616711 92.940346,48.873882 96.875221,48.965096 
	C100.423767,49.047352 102.419418,50.761555 102.981277,54.134487 
	C103.436790,56.869095 103.953804,59.640659 103.957031,62.396404 
	C104.015228,112.044945 104.006180,161.693573 103.981148,211.342163 
	C103.979767,214.085403 103.714310,216.828491 103.564415,219.713242 
	C109.112129,219.713242 114.855026,219.713242 120.675087,219.713242 
	C120.675087,157.393784 120.675087,95.358383 120.675087,33.385620 
	C104.963890,33.385620 89.581169,33.385620 74.247574,33.385620 
	C74.247574,95.686058 74.247574,157.603806 74.247574,219.687500 
	C79.882446,219.687500 85.265968,219.687500 91.000610,219.687500 
	C91.000610,191.086441 91.000610,162.793228 91.000610,133.500000 
z"/>
<path fill="#FFFFFF" opacity="1.000000" stroke="none" 
	d="
M182.000565,69.000000 
	C182.000565,119.422150 182.000565,169.344299 182.000565,219.629578 
	C176.754395,219.629578 170.717316,219.629578 163.999435,219.629578 
	C163.999435,217.780792 163.999435,215.852432 163.999435,213.924072 
	C163.999435,164.771317 164.026520,115.618500 163.930435,66.465927 
	C163.924820,63.594795 163.115814,60.671638 162.331482,57.870472 
	C161.522293,54.980503 159.251678,53.021210 156.377167,54.173214 
	C154.283264,55.012367 152.515442,57.201366 151.180466,59.178917 
	C150.479324,60.217556 151.003159,62.094795 151.003067,63.593342 
	C151.000046,113.579201 151.000565,163.565063 151.000565,213.550919 
	C151.000565,215.513947 151.000565,217.476974 151.000565,219.715851 
	C145.332382,219.715851 140.063950,219.715851 134.395447,219.715851 
	C134.395447,157.779495 134.395447,95.740028 134.395447,32.851551 
	C149.929657,32.851551 165.601044,32.851551 182.000565,32.851551 
	C182.000565,44.317230 182.000565,56.408615 182.000565,69.000000 
z"/>
<path fill="#FFFFFF" opacity="1.000000" stroke="none" 
	d="
M91.000610,134.000000 
	C91.000610,162.793228 91.000610,191.086441 91.000610,219.687500 
	C85.265968,219.687500 79.882446,219.687500 74.247574,219.687500 
	C74.247574,157.603806 74.247574,95.686058 74.247574,33.385620 
	C89.581169,33.385620 104.963890,33.385620 120.675087,33.385620 
	C120.675087,95.358383 120.675087,157.393784 120.675087,219.713242 
	C114.855026,219.713242 109.112129,219.713242 103.564415,219.713242 
	C103.714310,216.828491 103.979767,214.085403 103.981148,211.342163 
	C104.006180,161.693573 104.015228,112.044945 103.957031,62.396404 
	C103.953804,59.640659 103.436790,56.869095 102.981277,54.134487 
	C102.419418,50.761555 100.423767,49.047352 96.875221,48.965096 
	C92.940346,48.873882 91.877701,51.616711 91.081680,54.544346 
	C90.743668,55.787521 91.001793,57.194824 91.001717,58.527534 
	C91.000206,83.518356 91.000610,108.509178 91.000610,134.000000 
z"/>
</svg>